<?xml version="1.0" encoding="UTF-8"?>
<svg xmlns="http://www.w3.org/2000/svg" viewBox="0 0 210.64 239.49">
  <defs>
    <style>
      .cls-1 {
        fill: #fff;
        mix-blend-mode: multiply;
      }

      .cls-1, .cls-2 {
        stroke-width: 2px;
      }

      .cls-2 {
        fill: #234681;
        opacity: .99;
      }

      .cls-3 {
        isolation: isolate;
      }
    </style>
  </defs>
  <g class="cls-3">
    <g id="Layer_2" data-name="Layer 2">
      <g id="Calque_1" data-name="Calque 1">
        <g>
          <path class="cls-1" d="M210.64,173.58v-107.67c0-4.32-2.3-8.3-6.04-10.46L111.36,1.62c-3.74-2.16-8.34-2.16-12.08,0L6.04,55.45c-3.74,2.16-6.04,6.15-6.04,10.46v107.67c0,4.32,2.3,8.3,6.04,10.46l93.24,53.83c3.74,2.16,8.34,2.16,12.08,0l93.24-53.83c3.74-2.16,6.04-6.15,6.04-10.46Z"/>
          <path class="cls-2" d="M123.1,102.51h1.35l16.77-13.43-2.03-1.61-20.73-12.16h-28.27c-.73.18-1.5.31-2.21.53l-22.47,17.83c-.23.42-.47.84-.68,1.27v38.62l14.95,18.85h44.71v2.91l-.57,8.05c.74.86,2.09,1.13,3.13.34l12.48-9.47,4.82-32.96c-.27-.1-5.96-4.12-6.27-4.12l-10.03,8.66-5.14,3.93c0,2.34-1.92,4.26-4.26,4.26h-27.88c-2.34,0-4.26-1.92-4.26-4.26l-1.72-25.52,12.29-7.82h21.58c2.34,0,4.26,1.92,4.26,4.26v1.77l.17.06Z"/>
        </g>
      </g>
    </g>
  </g>
</svg>